<svg width="24" height="22" viewBox="0 0 24 22" fill="none" xmlns="http://www.w3.org/2000/svg">
<path fill-rule="evenodd" clip-rule="evenodd" d="M20.9878 0.188838C21.2543 0.0129341 21.5724 -0.0428558 21.8755 0.0331773C22.1786 0.10921 22.4431 0.311155 22.6134 0.596626L23.8038 2.58938C23.959 2.8497 24.0254 3.16183 23.9913 3.47066C23.9572 3.77949 23.8248 4.06517 23.6174 4.27727L23.6138 4.28255L23.597 4.29971L23.5284 4.36965L23.2579 4.65339C21.7609 6.24706 20.3094 7.89132 18.9053 9.58379C16.2637 12.7722 13.1267 16.9451 11.0154 20.9939C10.4262 22.1236 8.98696 22.3664 8.13328 21.3912L0.335898 12.499C0.224155 12.3715 0.136904 12.2207 0.079331 12.0555C0.0217576 11.8902 -0.00496283 11.714 0.000757628 11.5372C0.00647808 11.3604 0.0445227 11.1867 0.11263 11.0264C0.180738 10.866 0.277518 10.7224 0.397218 10.6039L2.75387 8.27069C2.96097 8.06576 3.22652 7.94619 3.50508 7.93247C3.78364 7.91875 4.05789 8.01172 4.28088 8.19547L8.25953 11.4696C14.4746 4.74313 17.9987 2.16179 20.9878 0.188838Z" fill="#7C5AED"/>
</svg>